<svg xmlns="http://www.w3.org/2000/svg" xmlns:xlink="http://www.w3.org/1999/xlink" version="1.1" width="256" height="256" viewBox="0 0 256 256" xml:space="preserve">

<defs>
</defs>
<g style="stroke: none; stroke-width: 0; stroke-dasharray: none; stroke-linecap: butt; stroke-linejoin: miter; stroke-miterlimit: 10; fill: none; fill-rule: nonzero; opacity: 1;" transform="translate(1.4065934065934016 1.4065934065934016) scale(2.81 2.81)" >
	<circle cx="45" cy="45" r="43" style="stroke: none; stroke-width: 1; stroke-dasharray: none; stroke-linecap: butt; stroke-linejoin: miter; stroke-miterlimit: 10; fill: rgb(49,244,90); fill-rule: nonzero; opacity: 1;" transform="  matrix(1 0 0 1 0 0) "/>
	<path d="M 38.768 65.067 c -0.013 0 -0.025 0 -0.037 0 c -1.656 -0.011 -3.227 -0.737 -4.307 -1.992 L 21.544 48.118 c -2.066 -2.4 -1.796 -6.019 0.604 -8.086 c 2.399 -2.066 6.019 -1.796 8.086 0.604 l 8.591 9.977 l 20.991 -23.744 c 2.097 -2.374 5.722 -2.595 8.092 -0.498 c 2.373 2.097 2.596 5.72 0.498 8.093 L 43.063 63.13 C 41.975 64.362 40.41 65.067 38.768 65.067 z" style="stroke: none; stroke-width: 1; stroke-dasharray: none; stroke-linecap: butt; stroke-linejoin: miter; stroke-miterlimit: 10; fill: rgb(255,255,255); fill-rule: nonzero; opacity: 1;" transform=" matrix(1 0 0 1 0 0) " stroke-linecap="round" />
	<path d="M 45 90 C 20.187 90 0 69.813 0 45 C 0 20.187 20.187 0 45 0 c 24.813 0 45 20.187 45 45 C 90 69.813 69.813 90 45 90 z M 45 4 C 22.393 4 4 22.393 4 45 s 18.393 41 41 41 s 41 -18.393 41 -41 S 67.607 4 45 4 z" style="stroke: none; stroke-width: 1; stroke-dasharray: none; stroke-linecap: butt; stroke-linejoin: miter; stroke-miterlimit: 10; fill: rgb(28,167,57); fill-rule: nonzero; opacity: 1;" transform=" matrix(1 0 0 1 0 0) " stroke-linecap="round" />
	<path d="M 38.768 67.066 H 38.73 c -2.247 -0.015 -4.365 -0.994 -5.823 -2.688 L 20.028 49.423 c -2.782 -3.231 -2.417 -8.125 0.814 -10.907 c 1.564 -1.348 3.562 -2.006 5.621 -1.852 c 2.06 0.154 3.937 1.101 5.285 2.666 l 7.096 8.241 l 19.473 -22.027 c 1.366 -1.547 3.255 -2.47 5.317 -2.597 c 2.056 -0.133 4.051 0.557 5.599 1.926 c 1.548 1.368 2.47 3.257 2.597 5.319 c 0.127 2.062 -0.557 4.049 -1.926 5.597 L 44.562 64.455 C 43.096 66.114 40.984 67.066 38.768 67.066 z M 25.882 40.643 c -0.893 0 -1.746 0.316 -2.429 0.904 c -1.561 1.344 -1.737 3.706 -0.394 5.267 L 35.939 61.77 c 0.704 0.817 1.726 1.29 2.805 1.297 l 0.024 2 v -2 c 1.069 0 2.088 -0.459 2.796 -1.261 L 66.908 33.14 c 0.66 -0.748 0.99 -1.707 0.93 -2.702 c -0.062 -0.995 -0.507 -1.907 -1.254 -2.568 c -0.747 -0.662 -1.714 -0.993 -2.703 -0.93 c -0.995 0.062 -1.906 0.506 -2.566 1.253 l -22.51 25.462 L 28.718 41.941 c -0.651 -0.756 -1.558 -1.213 -2.552 -1.288 C 26.071 40.646 25.977 40.643 25.882 40.643 z" style="stroke: none; stroke-width: 1; stroke-dasharray: none; stroke-linecap: butt; stroke-linejoin: miter; stroke-miterlimit: 10; fill: rgb(28,167,57); fill-rule: nonzero; opacity: 1;" transform=" matrix(1 0 0 1 0 0) " stroke-linecap="round" />
</g>
</svg>