<?xml version="1.0" encoding="UTF-8" standalone="no"?>
<svg
   xmlns:dc="http://purl.org/dc/elements/1.1/"
   xmlns:cc="http://creativecommons.org/ns#"
   xmlns:rdf="http://www.w3.org/1999/02/22-rdf-syntax-ns#"
   xmlns:svg="http://www.w3.org/2000/svg"
   xmlns="http://www.w3.org/2000/svg"
   xmlns:sodipodi="http://sodipodi.sourceforge.net/DTD/sodipodi-0.dtd"
   xmlns:inkscape="http://www.inkscape.org/namespaces/inkscape"
   version="1.1"
   id="svg2"
   xml:space="preserve"
   width="800"
   height="800"
   viewBox="0 0 800 800"
   sodipodi:docname="2022_UGF-logo.ai"><metadata
     id="metadata8"><rdf:RDF><cc:Work
         rdf:about=""><dc:format>image/svg+xml</dc:format><dc:type
           rdf:resource="http://purl.org/dc/dcmitype/StillImage" /></cc:Work></rdf:RDF></metadata><defs
     id="defs6"><clipPath
       clipPathUnits="userSpaceOnUse"
       id="clipPath18"><path
         d="M 0,600 H 600 V 0 H 0 Z"
         id="path16" /></clipPath></defs><sodipodi:namedview
     pagecolor="#ffffff"
     bordercolor="#666666"
     borderopacity="1"
     objecttolerance="10"
     gridtolerance="10"
     guidetolerance="10"
     inkscape:pageopacity="0"
     inkscape:pageshadow="2"
     inkscape:window-width="640"
     inkscape:window-height="480"
     id="namedview4" /><g
     id="g10"
     inkscape:groupmode="layer"
     inkscape:label="2022_UGF-logo"
     transform="matrix(1.3333333,0,0,-1.3333333,0,800)"><g
       id="g12"><g
         id="g14"
         clip-path="url(#clipPath18)"><g
           id="g20"
           transform="translate(357.8437,394.6641)"><path
             d="m 0,0 c -10.508,-3.506 -22.853,-6.996 -36.51,-9.806 -17.654,-3.646 -37.484,-6.156 -58.321,-6.156 -19.507,0 -39.883,2.193 -60.264,7.664 -21.204,5.694 -39.598,14.047 -55.293,23.397 -23.531,14.02 -40.996,30.304 -52.5,43.039 -5.76,6.35 -10.017,11.81 -12.8,15.628 -1.392,1.908 -2.427,3.405 -3.083,4.396 -0.329,0.501 -0.568,0.863 -0.719,1.102 -0.072,0.117 -0.122,0.2 -0.144,0.239 l -0.023,0.034 -18.082,-11.042 c 0.356,-0.59 11.354,-18.505 33.888,-39.549 11.265,-10.513 25.435,-21.817 42.622,-32.051 17.175,-10.235 37.383,-19.413 60.646,-25.658 22.43,-6.021 44.669,-8.387 65.752,-8.387 34.345,0.006 65.64,6.261 90.105,13.463 3.635,1.069 7.108,2.16 10.419,3.25 z m -279.667,79.548 -3.05,-1.876 -5.644,-3.456 8.704,5.321 -0.01,0.005 z"
             style="fill:#007bc1;fill-opacity:1;fill-rule:nonzero;stroke:none"
             id="path22" /></g><g
           id="g24"
           transform="translate(466.2295,258.3584)"><path
             d="m 0,0 c -4.291,-3.936 -9.545,-6.902 -15.772,-8.889 -6.228,-1.987 -13.046,-2.983 -20.464,-2.983 -12.662,0 -22.496,3.328 -29.503,9.979 -7.013,6.651 -10.615,16.334 -10.82,29.041 v 16.813 c 0,12.879 3.317,22.797 9.952,29.748 6.633,6.957 16.3,10.436 29.006,10.436 11.955,0 20.971,-2.511 27.049,-7.514 C -4.479,71.628 -0.957,63.775 0,53.078 h -21.633 c -0.606,5.949 -2.07,10.001 -4.391,12.166 -2.321,2.159 -5.95,3.239 -10.892,3.239 -5.999,0 -10.363,-1.864 -13.09,-5.582 -2.722,-3.729 -4.136,-9.651 -4.235,-17.782 V 28.172 c 0,-8.51 1.503,-14.704 4.503,-18.577 2.999,-3.874 7.93,-5.806 14.793,-5.806 4.385,0 7.936,0.746 10.669,2.243 l 1.959,1.158 V 24.326 H -37.901 V 38.574 H 0 Z"
             style="fill:#1c1c1b;fill-opacity:1;fill-rule:nonzero;stroke:none"
             id="path26" /></g><g
           id="g28"
           transform="translate(537.2285,285.8926)"><path
             d="m 0,0 h -34.573 v -38.124 h -22.24 V 55.321 H 4.163 V 39.599 H -34.573 V 15.661 l 34.573,0 z"
             style="fill:#1c1c1b;fill-opacity:1;fill-rule:nonzero;stroke:none"
             id="path30" /></g><g
           id="g32"
           transform="translate(198.748,464.5732)"><path
             d="m 0,0 c 9.189,0 16.664,-7.486 16.664,-16.669 0,-9.194 -7.475,-16.674 -16.664,-16.674 -9.194,0 -16.668,7.48 -16.668,16.674 C -16.668,-7.486 -9.194,0 0,0 m 0,-54.765 c 20.993,0 38.091,17.092 38.091,38.096 0,20.999 -17.098,38.085 -38.091,38.085 -20.999,0 -38.09,-17.086 -38.09,-38.085 0,-21.004 17.091,-38.096 38.09,-38.096"
             style="fill:#fecc00;fill-opacity:1;fill-rule:nonzero;stroke:none"
             id="path34" /></g><g
           id="g36"
           transform="translate(278.437,215.5518)"><path
             d="m 0,0 c -26.319,-1.998 -58.561,-0.145 -92.504,11.776 -1.96,0.685 -3.902,1.386 -5.867,2.138 -6.227,2.393 -12.149,5.048 -17.754,7.892 0,0.005 0,0.022 -0.011,0.039 -35.051,17.781 -57.597,43.304 -65.028,62.901 -2.459,6.495 -4.563,15.817 -0.667,23.308 2.193,4.196 7.335,7.614 14.509,9.607 13.463,3.75 31.434,2.292 51.848,-3.796 1.308,7.001 2.611,12.984 4.314,20.637 l 0.078,0.311 c -26.348,8.482 -43.578,8.61 -61.989,3.479 -13.129,-3.657 -22.724,-10.692 -27.75,-20.348 -5.994,-11.498 -6.116,-25.607 -0.362,-40.778 12.178,-32.142 47.553,-63.759 90.808,-81.491 0,-0.005 0.011,-0.022 0.011,-0.039 1.436,-0.589 2.883,-1.157 4.324,-1.719 6.94,-2.661 13.819,-4.909 20.609,-6.824 v -0.005 c 23.888,-6.757 46.712,-9.2 67.181,-9.2 8.855,0 14.744,0.183 22.975,1.074 C 3.128,-13.953 1.475,-7.163 0,0"
             style="fill:#00934b;fill-opacity:1;fill-rule:nonzero;stroke:none"
             id="path38" /></g><g
           id="g40"
           transform="translate(342.1748,499.1079)"><path
             d="m 0,0 c -64.683,-32.764 -98.716,-79.197 -116.615,-117.806 -3.139,-6.789 -5.799,-13.335 -8.025,-19.523 -0.089,-0.262 -0.184,-0.524 -0.273,-0.791 -3.562,-10.023 -6.228,-19.567 -8.232,-28.367 -1.808,-8.014 -3.071,-15.416 -3.94,-21.972 -2.398,-18.25 -1.764,-30.054 -1.708,-30.9 l 21.054,-0.117 c -0.006,0.144 -0.056,8.387 0.957,19.651 0.568,6.362 1.57,14.126 3.312,22.908 1.936,9.723 4.797,20.682 8.993,32.341 0.418,1.169 0.852,2.332 1.292,3.495 2.705,7.147 5.721,14.076 9.066,20.782 21.538,43.195 56.35,77.161 103.791,101.198 z"
             style="fill:#e20614;fill-opacity:1;fill-rule:nonzero;stroke:none"
             id="path42" /></g><g
           id="g44"
           transform="translate(185.9268,227.3242)"><path
             d="m 0,0 c -7.001,30.555 -7.858,62.228 -2.56,94.753 1.152,7.068 2.599,14.186 4.335,21.332 -4.758,1.876 -10.19,3.846 -14.787,5.321 l -5.605,1.648 c -1.658,-7.069 -3.211,-14.237 -4.396,-20.999 C -28.996,67.799 -28.111,36.889 -23.609,10.029 -18.004,7.185 -12.094,4.53 -5.855,2.137 -3.896,1.386 -1.948,0.685 0,0"
             style="fill:#fecc00;fill-opacity:1;fill-rule:nonzero;stroke:none"
             id="path46" /></g><g
           id="g48"
           transform="translate(203.917,176.1123)"><path
             d="m 0,0 c -4.191,8.731 -7.82,17.575 -10.909,26.53 -6.79,1.914 -13.663,4.157 -20.603,6.824 -1.453,0.556 -2.9,1.129 -4.33,1.719 4.77,-17.403 10.836,-32.563 16.958,-45.219 20.776,-42.894 46.211,-66.615 47.29,-67.593 l 14.521,15.733 C 42.693,-61.783 18.961,-39.521 0,0"
             style="fill:#fecc00;fill-opacity:1;fill-rule:nonzero;stroke:none"
             id="path50" /></g><g
           id="g52"
           transform="translate(376.6875,326.1987)"><path
             d="M 0,0 V 0 15.016 H -22.246 V 3.834 c -0.05,0.012 -0.1,0.023 -0.145,0.034 v -53.157 c 0,-5.309 -1.012,-9.093 -3.033,-11.359 -2.003,-2.253 -5.626,-3.378 -10.858,-3.394 -5.226,0.016 -8.849,1.141 -10.853,3.394 -2.02,2.266 -3.027,6.05 -3.027,11.359 V 3.868 c -0.045,-0.011 -0.101,-0.022 -0.151,-0.034 v 11.182 h -22.24 v -64.694 c 0.006,-0.623 0.062,-1.213 0.09,-1.82 0.027,-0.501 0.033,-1.018 0.077,-1.502 0.056,-0.58 0.146,-1.13 0.218,-1.687 0.077,-0.567 0.139,-1.151 0.239,-1.703 0.083,-0.445 0.2,-0.862 0.3,-1.297 0.146,-0.629 0.278,-1.257 0.451,-1.858 0.101,-0.334 0.229,-0.646 0.34,-0.974 0.223,-0.663 0.44,-1.325 0.701,-1.954 0.106,-0.256 0.24,-0.489 0.356,-0.735 0.306,-0.667 0.612,-1.335 0.974,-1.964 0.118,-0.217 0.273,-0.412 0.395,-0.623 0.385,-0.629 0.774,-1.258 1.208,-1.848 0.183,-0.245 0.395,-0.462 0.585,-0.701 0.417,-0.53 0.834,-1.058 1.302,-1.548 0.35,-0.372 0.752,-0.718 1.135,-1.074 0.323,-0.306 0.629,-0.629 0.974,-0.918 0.017,-0.011 0.028,-0.017 0.045,-0.033 0.022,-0.017 0.044,-0.04 0.066,-0.062 0.735,-0.606 1.514,-1.174 2.322,-1.714 0.01,-0.006 0.021,-0.016 0.033,-0.028 6.027,-3.99 14.141,-5.994 24.348,-5.994 0.045,0 0.079,0.006 0.112,0.006 0.039,0 0.078,-0.006 0.117,-0.006 10.201,0 18.316,2.004 24.344,5.994 0.099,0.061 0.177,0.139 0.278,0.206 0.718,0.484 1.425,0.991 2.081,1.536 0.023,0.017 0.039,0.039 0.062,0.056 0.01,0.016 0.033,0.028 0.049,0.039 0.429,0.356 0.808,0.752 1.197,1.13 0.306,0.283 0.624,0.556 0.908,0.851 0.522,0.557 0.996,1.147 1.469,1.742 0.128,0.173 0.289,0.328 0.418,0.506 0.478,0.646 0.906,1.336 1.324,2.032 0.089,0.15 0.2,0.29 0.278,0.44 0.396,0.69 0.74,1.419 1.074,2.159 0.079,0.184 0.178,0.351 0.25,0.534 0.295,0.691 0.54,1.425 0.78,2.159 0.089,0.262 0.189,0.501 0.267,0.763 0.195,0.668 0.345,1.375 0.506,2.076 0.072,0.362 0.179,0.707 0.245,1.079 0.117,0.624 0.19,1.281 0.273,1.926 0.061,0.485 0.145,0.958 0.189,1.453 0.05,0.568 0.056,1.163 0.084,1.747 0.027,0.536 0.083,1.058 0.089,1.609 v 0.424 0.027 z"
             style="fill:#1c1c1b;fill-opacity:1;fill-rule:nonzero;stroke:none"
             id="path54" /></g><g
           id="g56"
           transform="translate(321.2979,231.4814)"><path
             d="m 0,0 v -19.023 c 0,-2.154 -0.345,-4.018 -1.035,-5.599 -0.685,-1.575 -1.669,-2.777 -2.955,-3.601 -1.285,-0.829 -2.811,-1.235 -4.558,-1.235 -2.655,0 -4.748,0.918 -6.267,2.749 -1.531,1.836 -2.304,4.353 -2.332,7.547 V 0 h 5.276 v -19.302 c 0.061,-3.183 1.163,-4.769 3.323,-4.769 1.079,0 1.908,0.4 2.465,1.196 0.557,0.796 0.841,2.099 0.841,3.891 l 0,18.984 z"
             style="fill:#1c1c1b;fill-opacity:1;fill-rule:nonzero;stroke:none"
             id="path58" /></g><g
           id="g60"
           transform="translate(336.7451,213.2393)"><path
             d="m 0,0 -2.154,-3.156 v -7.664 h -5.243 v 29.063 h 5.243 V 5.432 l 1.82,3.689 4.697,9.122 h 6.484 L 3.495,5.387 10.847,-10.82 H 4.63 Z"
             style="fill:#1c1c1b;fill-opacity:1;fill-rule:nonzero;stroke:none"
             id="path62" /></g><g
           id="g64"
           transform="translate(358.9473,218.0898)"><path
             d="M 0,0 H 3.316 C 4.313,0 5.064,0.351 5.571,1.046 6.066,1.747 6.322,2.727 6.322,3.979 6.322,5.237 6.066,6.216 5.56,6.935 5.048,7.646 4.302,8.003 3.316,8.003 H 0 Z M 2.838,-5.394 H 0 v -10.273 h -5.243 v 29.058 h 8.559 c 2.583,0 4.598,-0.763 6.056,-2.293 1.447,-1.526 2.182,-3.685 2.182,-6.479 0,-2.02 -0.306,-3.695 -0.924,-5.025 -0.607,-1.33 -1.564,-2.405 -2.872,-3.229 L 12.3,-15.372 v -0.295 H 6.679 Z"
             style="fill:#1c1c1b;fill-opacity:1;fill-rule:nonzero;stroke:none"
             id="path66" /></g><g
           id="g68"
           transform="translate(385.0352,213.2578)"><path
             d="M 0,0 H 4.681 L 2.332,10.079 Z m 5.934,-5.41 h -7.192 l -1.252,-5.426 h -5.604 l 7.981,29.058 H 4.798 L 12.84,-10.836 H 7.202 Z"
             style="fill:#1c1c1b;fill-opacity:1;fill-rule:nonzero;stroke:none"
             id="path70" /></g><path
           d="m 409.825,202.421 h -5.231 v 29.063 h 5.231 z"
           style="fill:#1c1c1b;fill-opacity:1;fill-rule:nonzero;stroke:none"
           id="path72" /><g
           id="g74"
           transform="translate(436.4189,202.4209)"><path
             d="m 0,0 h -5.215 l -7.714,18.082 V 0 h -5.248 v 29.062 h 5.248 L -5.227,10.975 V 29.062 H 0 Z"
             style="fill:#1c1c1b;fill-opacity:1;fill-rule:nonzero;stroke:none"
             id="path76" /></g><path
           d="m 450.104,202.421 h -5.231 v 29.063 h 5.231 z"
           style="fill:#1c1c1b;fill-opacity:1;fill-rule:nonzero;stroke:none"
           id="path78" /><g
           id="g80"
           transform="translate(464.9199,213.2578)"><path
             d="M 0,0 H 4.681 L 2.332,10.079 Z m 5.934,-5.41 h -7.192 l -1.252,-5.426 h -5.604 l 7.981,29.058 h 4.931 l 8.048,-29.058 H 7.208 Z"
             style="fill:#1c1c1b;fill-opacity:1;fill-rule:nonzero;stroke:none"
             id="path82" /></g><g
           id="g84"
           transform="translate(502.2969,202.4209)"><path
             d="m 0,0 h -5.215 l -7.714,18.082 V 0 h -5.254 v 29.062 h 5.254 L -5.231,10.975 V 29.062 H 0 Z"
             style="fill:#1c1c1b;fill-opacity:1;fill-rule:nonzero;stroke:none"
             id="path86" /></g><g
           id="g88"
           transform="translate(322.3691,163.4541)"><path
             d="m 0,0 c -0.808,-1.197 -1.981,-2.16 -3.54,-2.895 -1.553,-0.729 -3.267,-1.096 -5.12,-1.096 -2.844,0 -5.126,1.163 -6.823,3.495 -1.709,2.326 -2.621,5.565 -2.739,9.718 l -0.01,2.515 c 0,2.861 0.372,5.36 1.134,7.497 0.752,2.131 1.837,3.779 3.25,4.925 1.409,1.153 3.039,1.732 4.893,1.732 2.71,0 4.819,-0.83 6.316,-2.489 1.497,-1.653 2.371,-4.124 2.627,-7.413 H -5.07 c -0.179,1.625 -0.563,2.782 -1.159,3.473 -0.606,0.695 -1.452,1.041 -2.548,1.041 -1.314,0 -2.332,-0.746 -3.05,-2.237 -0.718,-1.493 -1.074,-3.623 -1.085,-6.39 v -1.753 c 0,-2.905 0.367,-5.081 1.113,-6.539 0.74,-1.459 1.908,-2.188 3.5,-2.188 1.369,0 2.388,0.407 3.05,1.219 v 4.514 h -3.65 v 4.809 H 0 Z"
             style="fill:#1c1c1b;fill-opacity:1;fill-rule:nonzero;stroke:none"
             id="path90" /></g><g
           id="g92"
           transform="translate(333.9619,176.3096)"><path
             d="M 0,0 4.007,12.617 H 9.673 L 2.666,-6.011 v -10.44 H -2.66 v 10.44 l -6.99,18.628 h 5.631 z"
             style="fill:#1c1c1b;fill-opacity:1;fill-rule:nonzero;stroke:none"
             id="path94" /></g><g
           id="g96"
           transform="translate(352.6855,188.9248)"><path
             d="M 0,0 4.859,-20.22 9.701,0 h 6.902 v -29.063 h -5.26 v 6.79 L 11.854,-8.382 6.596,-29.063 H 3.128 l -5.281,20.698 0.511,-13.908 v -6.79 H -6.89 L -6.89,0 Z"
             style="fill:#1c1c1b;fill-opacity:1;fill-rule:nonzero;stroke:none"
             id="path98" /></g><g
           id="g100"
           transform="translate(391.3838,159.8613)"><path
             d="m 0,0 h -5.215 l -7.714,18.088 V 0 h -5.254 v 29.062 h 5.254 L -5.231,10.98 V 29.062 H 0 Z"
             style="fill:#1c1c1b;fill-opacity:1;fill-rule:nonzero;stroke:none"
             id="path102" /></g><g
           id="g104"
           transform="translate(401.6777,170.7012)"><path
             d="M 0,0 H 4.681 L 2.332,10.079 Z m 5.933,-5.41 h -7.191 l -1.253,-5.432 h -5.603 l 7.98,29.064 H 4.798 L 12.84,-10.842 H 7.201 Z"
             style="fill:#1c1c1b;fill-opacity:1;fill-rule:nonzero;stroke:none"
             id="path106" /></g><g
           id="g108"
           transform="translate(427.9023,167.5869)"><path
             d="m 0,0 c 0,1.024 -0.273,1.825 -0.813,2.394 -0.54,0.573 -1.498,1.169 -2.861,1.781 -1.369,0.606 -2.482,1.201 -3.35,1.775 -2.828,1.848 -4.23,4.391 -4.23,7.624 0,1.609 0.351,3.029 1.052,4.264 0.707,1.224 1.697,2.187 2.983,2.871 1.285,0.686 2.727,1.03 4.33,1.03 1.57,0 2.972,-0.373 4.213,-1.119 1.241,-0.745 2.204,-1.808 2.894,-3.183 0.684,-1.375 1.03,-2.95 1.03,-4.719 H 0.017 c 0,1.185 -0.274,2.103 -0.819,2.755 -0.54,0.645 -1.274,0.973 -2.204,0.973 -0.934,0 -1.675,-0.278 -2.215,-0.823 -0.546,-0.557 -0.818,-1.258 -0.818,-2.109 0,-0.746 0.301,-1.42 0.896,-2.027 0.601,-0.606 1.653,-1.229 3.156,-1.875 C -0.484,8.966 0.757,8.271 1.719,7.525 4.068,5.716 5.248,3.223 5.248,0.039 c 0,-2.543 -0.718,-4.536 -2.154,-5.988 -1.436,-1.452 -3.401,-2.176 -5.906,-2.176 -1.758,0 -3.361,0.423 -4.786,1.269 -1.429,0.839 -2.504,1.998 -3.233,3.472 -0.724,1.47 -1.085,3.161 -1.085,5.082 h 5.265 c 0,-1.558 0.295,-2.705 0.907,-3.44 0.601,-0.745 1.575,-1.112 2.932,-1.112 0.869,0 1.553,0.25 2.054,0.75 C -0.257,-1.608 0,-0.907 0,0"
             style="fill:#1c1c1b;fill-opacity:1;fill-rule:nonzero;stroke:none"
             id="path110" /></g><g
           id="g112"
           transform="translate(453.5068,183.5146)"><path
             d="m 0,0 h -6.534 v -23.653 h -5.243 V 0 h -6.422 V 5.409 H 0 Z"
             style="fill:#1c1c1b;fill-opacity:1;fill-rule:nonzero;stroke:none"
             id="path114" /></g><path
           d="m 461.88,159.861 h -5.226 v 29.063 h 5.226 z"
           style="fill:#1c1c1b;fill-opacity:1;fill-rule:nonzero;stroke:none"
           id="path116" /><g
           id="g118"
           transform="translate(483.7148,169.7041)"><path
             d="m 0,0 c -0.067,-2.026 -0.479,-3.813 -1.225,-5.36 -0.746,-1.553 -1.797,-2.755 -3.144,-3.607 -1.353,-0.851 -2.895,-1.274 -4.625,-1.274 -2.866,0 -5.115,1.241 -6.757,3.734 -1.647,2.488 -2.466,6 -2.466,10.536 v 1.436 c 0,2.849 0.368,5.343 1.113,7.48 0.741,2.131 1.809,3.784 3.207,4.948 1.391,1.163 3.005,1.748 4.841,1.748 2.644,0 4.765,-0.93 6.368,-2.784 1.602,-1.859 2.515,-4.419 2.732,-7.68 h -5.231 c -0.034,1.775 -0.374,3.045 -0.997,3.812 -0.634,0.774 -1.586,1.158 -2.872,1.158 -1.301,0 -2.264,-0.651 -2.871,-1.954 -0.607,-1.302 -0.929,-3.383 -0.952,-6.25 V 3.89 c 0,-3.1 0.284,-5.316 0.868,-6.646 0.584,-1.33 1.592,-1.998 3.017,-1.998 1.208,0 2.126,0.379 2.761,1.142 0.639,0.757 0.979,1.959 1.018,3.612 z"
             style="fill:#1c1c1b;fill-opacity:1;fill-rule:nonzero;stroke:none"
             id="path120" /></g><g
           id="g122"
           transform="translate(498.0039,167.5869)"><path
             d="m 0,0 c 0,1.024 -0.273,1.825 -0.813,2.394 -0.551,0.573 -1.498,1.169 -2.867,1.781 -1.363,0.606 -2.476,1.201 -3.349,1.775 -2.823,1.848 -4.225,4.391 -4.225,7.624 0,1.609 0.351,3.029 1.046,4.264 0.707,1.224 1.703,2.187 2.983,2.871 1.291,0.686 2.733,1.03 4.336,1.03 1.57,0 2.972,-0.373 4.207,-1.119 1.242,-0.745 2.21,-1.808 2.895,-3.183 0.689,-1.375 1.029,-2.95 1.029,-4.719 H 0.011 c 0,1.185 -0.273,2.103 -0.813,2.755 -0.546,0.645 -1.28,0.973 -2.204,0.973 -0.934,0 -1.681,-0.278 -2.215,-0.823 -0.55,-0.557 -0.818,-1.258 -0.818,-2.109 0,-0.746 0.301,-1.42 0.896,-2.027 0.601,-0.606 1.647,-1.229 3.156,-1.875 C -0.484,8.966 0.751,8.271 1.72,7.525 4.068,5.716 5.242,3.223 5.242,0.039 c 0,-2.543 -0.718,-4.536 -2.148,-5.988 -1.436,-1.452 -3.406,-2.176 -5.905,-2.176 -1.764,0 -3.362,0.423 -4.793,1.269 -1.429,0.839 -2.503,1.998 -3.227,3.472 -0.724,1.47 -1.085,3.161 -1.085,5.082 h 5.265 c 0,-1.558 0.295,-2.705 0.901,-3.44 0.602,-0.745 1.587,-1.112 2.939,-1.112 0.863,0 1.547,0.25 2.053,0.75 C -0.251,-1.608 0,-0.907 0,0"
             style="fill:#1c1c1b;fill-opacity:1;fill-rule:nonzero;stroke:none"
             id="path124" /></g><g
           id="g126"
           transform="translate(317.8359,129.0225)"><path
             d="m 0,0 h -8.46 v -11.576 h -5.242 V 17.487 H 0.852 v -5.41 H -8.46 V 5.394 H 0 Z"
             style="fill:#1c1c1b;fill-opacity:1;fill-rule:nonzero;stroke:none"
             id="path128" /></g><g
           id="g130"
           transform="translate(336.6416,129.7832)"><path
             d="m 0,0 h -8.254 v -6.951 h 9.75 v -5.388 H -13.503 V 16.725 H 1.519 V 11.314 H -8.254 V 5.187 l 8.254,0 z"
             style="fill:#1c1c1b;fill-opacity:1;fill-rule:nonzero;stroke:none"
             id="path132" /></g><g
           id="g134"
           transform="translate(347.7832,141.0996)"><path
             d="m 0,0 v -18.267 h 1.825 c 1.509,0 2.661,0.718 3.468,2.149 0.807,1.43 1.208,3.556 1.208,6.378 v 1.258 c 0,2.804 -0.401,4.919 -1.208,6.344 C 4.486,-0.713 3.312,0 1.765,0 Z M -5.242,-23.654 V 5.409 h 7.007 c 1.925,0 3.656,-0.585 5.186,-1.748 1.536,-1.163 2.734,-2.81 3.602,-4.931 0.856,-2.12 1.291,-4.502 1.301,-7.134 V -9.74 c 0,-2.666 -0.422,-5.048 -1.263,-7.157 -0.84,-2.11 -2.031,-3.757 -3.556,-4.954 -1.53,-1.191 -3.233,-1.792 -5.12,-1.803 z"
             style="fill:#1c1c1b;fill-opacity:1;fill-rule:nonzero;stroke:none"
             id="path136" /></g><g
           id="g138"
           transform="translate(378.0947,129.7832)"><path
             d="m 0,0 h -8.248 v -6.951 h 9.745 v -5.388 H -13.502 V 16.725 H 1.52 V 11.314 H -8.248 V 5.187 l 8.248,0 z"
             style="fill:#1c1c1b;fill-opacity:1;fill-rule:nonzero;stroke:none"
             id="path140" /></g><g
           id="g142"
           transform="translate(389.2363,133.1152)"><path
             d="M 0,0 H 3.323 C 4.313,0 5.07,0.351 5.571,1.052 6.072,1.747 6.328,2.727 6.328,3.979 6.328,5.237 6.072,6.222 5.565,6.935 5.054,7.646 4.308,8.003 3.323,8.003 H 0 Z M 2.844,-5.388 H 0 v -10.279 h -5.242 v 29.063 h 8.565 c 2.582,0 4.597,-0.768 6.055,-2.293 1.447,-1.531 2.182,-3.69 2.182,-6.484 0,-2.02 -0.306,-3.695 -0.924,-5.02 -0.613,-1.335 -1.57,-2.41 -2.872,-3.234 l 4.542,-11.737 v -0.295 H 6.685 Z"
             style="fill:#1c1c1b;fill-opacity:1;fill-rule:nonzero;stroke:none"
             id="path144" /></g><g
           id="g146"
           transform="translate(412.8193,128.2852)"><path
             d="M 0,0 H 4.681 L 2.332,10.079 Z m 5.933,-5.409 h -7.191 l -1.253,-5.433 H -8.12 l 7.992,29.064 h 4.925 l 8.048,-29.064 H 7.207 Z"
             style="fill:#1c1c1b;fill-opacity:1;fill-rule:nonzero;stroke:none"
             id="path148" /></g><g
           id="g150"
           transform="translate(444.6416,141.0996)"><path
             d="m 0,0 h -6.539 v -23.654 h -5.243 V 0 h -6.417 V 5.409 H 0 Z"
             style="fill:#1c1c1b;fill-opacity:1;fill-rule:nonzero;stroke:none"
             id="path152" /></g><path
           d="m 454.706,117.447 h -5.226 v 29.062 h 5.226 z"
           style="fill:#1c1c1b;fill-opacity:1;fill-rule:nonzero;stroke:none"
           id="path154" /><g
           id="g156"
           transform="translate(473.7139,132.5967)"><path
             d="M 0,0 C 0,2.888 -0.355,5.081 -1.079,6.578 -1.803,8.075 -2.838,8.82 -4.185,8.82 -6.817,8.82 -8.203,6.188 -8.354,0.918 L -8.37,-1.22 c 0,-2.843 0.356,-5.036 1.068,-6.561 0.701,-1.536 1.753,-2.299 3.151,-2.299 1.319,0 2.348,0.752 3.066,2.255 0.718,1.502 1.08,3.667 1.085,6.489 z m 5.338,-1.22 c 0,-2.832 -0.39,-5.342 -1.18,-7.524 -0.791,-2.182 -1.909,-3.862 -3.35,-5.042 -1.458,-1.175 -3.106,-1.765 -4.959,-1.765 -1.854,0 -3.501,0.569 -4.937,1.709 -1.436,1.135 -2.549,2.766 -3.35,4.881 -0.807,2.115 -1.225,4.542 -1.269,7.285 v 1.637 c 0,2.844 0.394,5.359 1.18,7.535 0.779,2.177 1.897,3.858 3.361,5.037 1.458,1.186 3.122,1.78 4.981,1.78 1.848,0 3.49,-0.589 4.937,-1.757 C 2.193,11.381 3.317,9.717 4.119,7.558 4.926,5.393 5.326,2.916 5.338,0.116 Z"
             style="fill:#1c1c1b;fill-opacity:1;fill-rule:nonzero;stroke:none"
             id="path158" /></g><g
           id="g160"
           transform="translate(502.2051,117.4453)"><path
             d="m 0,0 h -5.215 l -7.714,18.088 V 0 h -5.254 v 29.063 h 5.254 L -5.231,10.98 V 29.063 H 0 Z"
             style="fill:#1c1c1b;fill-opacity:1;fill-rule:nonzero;stroke:none"
             id="path162" /></g></g></g></g></svg>
