<svg width="23" height="21" viewBox="0 0 23 21" fill="none" xmlns="http://www.w3.org/2000/svg">
<path d="M11.3 20.3C10.8714 20.3 10.4071 20.1537 10.0857 19.8247C9.26429 19.0934 8.44286 18.3987 7.72857 17.7771C5.62143 15.949 3.8 14.3768 2.51429 12.8046C1.01429 10.9764 0.3 9.22139 0.3 7.28355C0.3 5.38227 0.942857 3.62724 2.12143 2.34753C3.3 1.03126 4.94286 0.3 6.72857 0.3C8.05 0.3 9.3 0.738757 10.3714 1.57971C10.6929 1.83565 11.0143 2.12815 11.3 2.45722C11.5857 2.12815 11.9071 1.83565 12.2286 1.57971C13.3 0.738757 14.5143 0.3 15.8714 0.3C17.6571 0.3 19.2643 1.03126 20.4786 2.34753C21.6571 3.62724 22.3 5.38227 22.3 7.28355C22.3 9.22139 21.5857 10.9764 20.0857 12.8046C18.8 14.3768 16.9786 15.949 14.8714 17.7771C14.1571 18.3987 13.3357 19.0934 12.5143 19.8247C12.1929 20.1172 11.7286 20.3 11.3 20.3ZM6.72857 1.54314C5.3 1.54314 3.97857 2.12815 3.05 3.18848C2.08571 4.24881 1.58571 5.67477 1.58571 7.24698C1.58571 8.85576 2.19286 10.3548 3.47857 11.9636C4.69286 13.4627 6.47857 14.9984 8.55 16.7899C9.26429 17.4115 10.0857 18.1062 10.9071 18.874C11.1214 19.0569 11.4786 19.0569 11.6929 18.874C12.55 18.1428 13.3357 17.4115 14.05 16.7899C16.1214 14.9984 17.9071 13.4627 19.1214 11.9636C20.4071 10.3548 21.0143 8.85576 21.0143 7.24698C21.0143 5.67477 20.4786 4.24881 19.55 3.18848C18.5857 2.12815 17.3 1.54314 15.8714 1.54314C14.8 1.54314 13.8357 1.87221 13.0143 2.56691C12.6571 2.82285 12.3714 3.15192 12.05 3.51755C11.8714 3.73693 11.5857 3.88318 11.3 3.88318C11.0143 3.88318 10.7286 3.73693 10.55 3.51755C10.2643 3.15192 9.94286 2.82285 9.58571 2.56691C8.76429 1.90877 7.8 1.54314 6.72857 1.54314Z" fill="#212B36"/>
<path fill-rule="evenodd" clip-rule="evenodd" d="M10.5583 1.34502C10.8089 1.54457 11.0617 1.76738 11.3 2.01365C11.5383 1.76738 11.7911 1.54457 12.0417 1.34502L12.0433 1.34371C13.1651 0.463226 14.4441 0 15.8714 0C17.7442 0 19.4303 0.768757 20.6991 2.14411C21.9341 3.48514 22.6 5.31544 22.6 7.28355C22.6 9.30635 21.8506 11.1264 20.3179 12.9945C19.0377 14.56 17.2396 16.1199 15.1901 17.8979L15.0684 18.0035C14.8207 18.219 14.5616 18.4421 14.2948 18.6718C13.7874 19.1086 13.2522 19.5694 12.715 20.0477C12.3398 20.3885 11.8046 20.6 11.3 20.6C10.8139 20.6 10.2688 20.4363 9.87881 20.0421C9.34361 19.5658 8.81063 19.1069 8.30523 18.6718C8.03845 18.4421 7.77937 18.219 7.5317 18.0035C7.49101 17.9682 7.45042 17.933 7.40992 17.8979C5.36051 16.12 3.56242 14.5601 2.28219 12.9947C0.749397 11.1265 0 9.30641 0 7.28355C0 5.3162 0.665197 3.48674 1.89933 2.14585C3.13527 0.766383 4.85909 0 6.72857 0C8.11928 0 9.43408 0.462621 10.5567 1.34372L10.5583 1.34502ZM2.12143 2.34753C0.942857 3.62724 0.3 5.38227 0.3 7.28355C0.3 9.22139 1.01429 10.9764 2.51429 12.8046C3.77804 14.3499 5.55937 15.8953 7.62086 17.6837L7.72857 17.7771C7.97389 17.9906 8.23184 18.2127 8.49809 18.442C9.00708 18.8802 9.5464 19.3446 10.0857 19.8247C10.4071 20.1537 10.8714 20.3 11.3 20.3C11.7286 20.3 12.1929 20.1172 12.5143 19.8247C13.0536 19.3446 13.5929 18.8802 14.1019 18.4419C14.3682 18.2127 14.6261 17.9906 14.8714 17.7771L14.9791 17.6837C17.0406 15.8953 18.822 14.3499 20.0857 12.8046C21.5857 10.9764 22.3 9.22139 22.3 7.28355C22.3 5.38227 21.6571 3.62724 20.4786 2.34753C19.2643 1.03126 17.6571 0.3 15.8714 0.3C14.5143 0.3 13.3 0.738757 12.2286 1.57971C11.9816 1.77638 11.7346 1.99465 11.5038 2.2345C11.4342 2.30678 11.3662 2.38102 11.3 2.45722C11.2338 2.38102 11.1658 2.30678 11.0962 2.2345C10.8654 1.99465 10.6184 1.77638 10.3714 1.57971C9.3 0.738757 8.05 0.3 6.72857 0.3C4.94286 0.3 3.3 1.03126 2.12143 2.34753ZM3.27195 3.39032C2.36488 4.38773 1.88571 5.73832 1.88571 7.24698C1.88571 8.76948 2.45676 10.2043 3.71228 11.7755C4.88653 13.225 6.61017 14.7157 8.64497 16.4754L8.74625 16.563C8.89519 16.6926 9.05001 16.8265 9.20823 16.9632C9.80264 17.4771 10.4547 18.0408 11.106 18.6492C11.209 18.7329 11.3974 18.7318 11.4981 18.6458C11.9994 18.2181 12.4669 17.7988 12.9141 17.3977C13.2359 17.109 13.5472 16.8298 13.8531 16.5636L13.955 16.4754C15.9899 14.7156 17.7135 13.2249 18.8878 11.7755C20.1433 10.2042 20.7143 8.76946 20.7143 7.24698C20.7143 5.74424 20.2029 4.39053 19.3262 3.38826C18.4172 2.38986 17.212 1.84314 15.8714 1.84314C14.8663 1.84314 13.9718 2.15 13.208 2.79598L13.1988 2.80375L13.189 2.81076C12.8693 3.03986 12.6092 3.33576 12.2881 3.70113L12.2788 3.71165C12.0474 3.99311 11.6805 4.18318 11.3 4.18318C10.9174 4.18318 10.5486 3.99099 10.3173 3.70694L10.3136 3.70231C10.0406 3.35299 9.73919 3.04597 9.41096 2.81076L9.40442 2.80607L9.39813 2.80103C8.62624 2.18258 7.72722 1.84314 6.72857 1.84314C5.38373 1.84314 4.14552 2.39288 3.27569 3.38613L3.27195 3.39032ZM12.05 3.51755L12.0747 3.48942C12.3862 3.13504 12.6663 2.81627 13.0143 2.56691C13.8357 1.87221 14.8 1.54314 15.8714 1.54314C17.3 1.54314 18.5857 2.12815 19.55 3.18848C20.4786 4.24881 21.0143 5.67477 21.0143 7.24698C21.0143 8.85576 20.4071 10.3548 19.1214 11.9636C17.9302 13.4343 16.189 14.9401 14.1676 16.6883L14.05 16.7899C13.7528 17.0485 13.4433 17.3261 13.1214 17.6148C12.6696 18.02 12.1934 18.447 11.6929 18.874C11.4786 19.0569 11.1214 19.0569 10.9071 18.874C10.2586 18.2678 9.61007 17.7072 9.01426 17.1921C8.85542 17.0548 8.70034 16.9208 8.55 16.7899L8.43245 16.6883C6.41104 14.9401 4.66983 13.4343 3.47857 11.9636C2.19286 10.3548 1.58571 8.85576 1.58571 7.24698C1.58571 5.67477 2.08571 4.24881 3.05 3.18848C3.97857 2.12815 5.3 1.54314 6.72857 1.54314C7.8 1.54314 8.76429 1.90877 9.58571 2.56691C9.94286 2.82285 10.2643 3.15192 10.55 3.51755C10.7286 3.73693 11.0143 3.88318 11.3 3.88318C11.5857 3.88318 11.8714 3.73693 12.05 3.51755Z" fill="#212B36"/>
</svg>
